<?xml version="1.0" encoding="UTF-8" standalone="no"?>
<!-- Created with Inkscape (http://www.inkscape.org/) -->

<svg
   xmlns:dc="http://purl.org/dc/elements/1.1/"
   xmlns:cc="http://creativecommons.org/ns#"
   xmlns:rdf="http://www.w3.org/1999/02/22-rdf-syntax-ns#"
   xmlns:svg="http://www.w3.org/2000/svg"
   xmlns="http://www.w3.org/2000/svg"
   xmlns:xlink="http://www.w3.org/1999/xlink"
   xmlns:sodipodi="http://sodipodi.sourceforge.net/DTD/sodipodi-0.dtd"
   xmlns:inkscape="http://www.inkscape.org/namespaces/inkscape"
   width="1052.3622"
   height="744.09448"
   id="svg2"
   version="1.1"
   inkscape:version="0.48.2 r9819"
   sodipodi:docname="diagram.2013_10_20_22_22_46.0.svg">
  <defs
     id="defs4">
    <marker
       inkscape:stockid="Arrow1Send"
       orient="auto"
       refY="0.0"
       refX="0.0"
       id="Arrow1Send"
       style="overflow:visible;">
      <path
         id="path4095"
         d="M 0.0,0.0 L 5.0,-5.0 L -12.5,0.0 L 5.0,5.0 L 0.0,0.0 z "
         style="fill-rule:evenodd;stroke:#000000;stroke-width:1.0pt;marker-start:none;"
         transform="scale(0.2) rotate(180) translate(6,0)" />
    </marker>
    <marker
       inkscape:stockid="Arrow1Mend"
       orient="auto"
       refY="0.0"
       refX="0.0"
       id="Arrow1Mend"
       style="overflow:visible;">
      <path
         id="path4089"
         d="M 0.0,0.0 L 5.0,-5.0 L -12.5,0.0 L 5.0,5.0 L 0.0,0.0 z "
         style="fill-rule:evenodd;stroke:#000000;stroke-width:1.0pt;marker-start:none;"
         transform="scale(0.4) rotate(180) translate(10,0)" />
    </marker>
    <marker
       inkscape:stockid="Arrow1Lend"
       orient="auto"
       refY="0.0"
       refX="0.0"
       id="Arrow1Lend"
       style="overflow:visible;">
      <path
         id="path4083"
         d="M 0.0,0.0 L 5.0,-5.0 L -12.5,0.0 L 5.0,5.0 L 0.0,0.0 z "
         style="fill-rule:evenodd;stroke:#000000;stroke-width:1.0pt;marker-start:none;"
         transform="scale(0.8) rotate(180) translate(12.5,0)" />
    </marker>
  </defs>
  <sodipodi:namedview
     id="base"
     pagecolor="#ffffff"
     bordercolor="#666666"
     borderopacity="1.0"
     inkscape:pageopacity="0.0"
     inkscape:pageshadow="2"
     inkscape:zoom="0.72597839"
     inkscape:cx="510.33269"
     inkscape:cy="368.31249"
     inkscape:document-units="px"
     inkscape:current-layer="layer1"
     showgrid="false"
     showguides="true"
     inkscape:guide-bbox="true"
     inkscape:window-width="1385"
     inkscape:window-height="870"
     inkscape:window-x="20"
     inkscape:window-y="20"
     inkscape:window-maximized="0">
    <sodipodi:guide
       orientation="1,0"
       position="528.94136,883.63512"
       id="guide3888" />
    <sodipodi:guide
       orientation="1,0"
       position="628,351"
       id="guide3890" />
    <sodipodi:guide
       orientation="1,0"
       position="298.53262,895.11085"
       id="guide3892" />
    <sodipodi:guide
       orientation="0,1"
       position="298.53262,805.98936"
       id="guide3894" />
  </sodipodi:namedview>
  <metadata
     id="metadata7">
    <rdf:RDF>
      <cc:Work
         rdf:about="">
        <dc:format>image/svg+xml</dc:format>
        <dc:type
           rdf:resource="http://purl.org/dc/dcmitype/StillImage" />
        <dc:title></dc:title>
      </cc:Work>
    </rdf:RDF>
  </metadata>
  <g
     inkscape:label="Layer 1"
     inkscape:groupmode="layer"
     id="layer1"
     transform="translate(0,-308.2677)">
    <rect
       style="fill:#000000;fill-opacity:0.15294118000000001;stroke:#000000;stroke-width:3;stroke-miterlimit:4;stroke-opacity:0;stroke-dasharray:none;stroke-dashoffset:0"
       id="rect3961"
       width="859.84186"
       height="224.85995"
       x="174.38478"
       y="819.01691" />
    <use
       x="0"
       y="0"
       xlink:href="#rect3846"
       id="use3848"
       transform="matrix(-0.62932041,-0.77714597,0.77714597,-0.62932041,493.67003,1210.5408)"
       width="1052.3622"
       height="744.09448" />
    <path
       inkscape:connector-curvature="0"
       id="path3920"
       d="m 587.44183,574.37729 c -0.19954,-0.024 -1.41763,-0.48946 -2.70693,-1.03479 -8.44164,-3.56953 -21.33123,-5.02743 -30.21367,-3.4174 -0.94272,0.17129 -1.79877,0.20617 -1.90222,0.0783 -0.10343,-0.12773 -1.27415,-21.01576 -2.60158,-46.4179 -1.32725,-25.40209 -2.46305,-46.8638 -2.52401,-47.69269 l -0.11041,-1.50708 4.56125,2.06806 c 12.93539,5.86474 29.67782,7.37392 42.53058,3.83364 1.65356,-0.45551 3.07431,-0.82061 3.15688,-0.81236 0.0826,0.009 -2.09459,21.37494 -4.83842,47.48056 -2.74384,26.10571 -5.15194,47.44529 -5.35148,47.42146 z"
       style="fill:#d9e26b;fill-opacity:1;stroke:#000000;stroke-width:0.34090185;stroke-miterlimit:4;stroke-opacity:1;stroke-dasharray:none" />
    <path
       style="fill:#d9e26b;fill-opacity:1;stroke:#000000;stroke-width:0.34090185;stroke-miterlimit:4;stroke-opacity:1;stroke-dasharray:none"
       d="m 542.43503,571.04491 c -0.20071,0.01 -1.47684,-0.26145 -2.83551,-0.59848 -8.8961,-2.20507 -21.85512,-1.62868 -30.3763,1.35104 -0.90433,0.31669 -1.7444,0.48502 -1.86653,0.3749 -0.12216,-0.11008 -4.5461,-20.55771 -9.83094,-45.4395 -5.28468,-24.88165 -9.76385,-45.90146 -9.95369,-46.71059 l -0.34485,-1.47126 4.82858,1.32906 c 13.69359,3.76897 30.46599,2.64044 42.60663,-2.8668 1.56205,-0.7086 2.90794,-1.29186 2.991,-1.29626 0.0832,-5.5e-4 1.275,21.43949 2.64873,47.65299 1.37382,26.21345 2.33355,47.66699 2.13275,47.67471 z"
       id="path3918"
       inkscape:connector-curvature="0" />
    <path
       inkscape:connector-curvature="0"
       id="path3916"
       d="m 496.89112,574.53923 c -0.19682,0.0405 -1.4995,-0.0271 -2.89419,-0.14773 -9.13147,-0.78626 -21.84079,1.81032 -29.79095,6.08637 -0.84383,0.45388 -1.64699,0.75192 -1.78487,0.66239 -0.13786,-0.0894 -7.70601,-19.59342 -16.81814,-43.34212 -9.11219,-23.74856 -16.8244,-43.8089 -17.13832,-44.57847 l -0.57072,-1.39923 4.97711,0.55731 c 14.11453,1.58041 30.50391,-2.15796 41.63357,-9.49669 1.43195,-0.94416 2.67006,-1.73081 2.75141,-1.74808 0.0818,-0.0132 4.61315,20.97602 10.07074,46.65187 5.45755,25.67585 9.76157,46.71519 9.56439,46.75411 z"
       style="fill:#d9e26b;fill-opacity:1;stroke:#000000;stroke-width:0.34090185;stroke-miterlimit:4;stroke-opacity:1;stroke-dasharray:none" />
    <path
       inkscape:connector-curvature="0"
       id="path3908"
       d="m 412.43641,602.39889 c -0.17542,0.0981 -1.43449,0.43756 -2.79815,0.75398 -8.92753,2.074 -20.21241,8.47087 -26.45213,14.99446 -0.66225,0.69236 -1.33397,1.22397 -1.49277,1.18148 -0.15876,-0.0426 -13.38358,-16.25319 -29.38852,-36.02369 -16.00491,-19.77047 -29.53864,-36.46577 -30.07493,-37.10059 l -0.97519,-1.15433 4.90569,-1.00799 c 13.91214,-2.8586 28.3441,-11.47862 36.66122,-21.89737 1.0701,-1.3405 2.00457,-2.47123 2.07654,-2.51282 0.0719,-0.0413 10.86931,18.52387 23.99406,41.25659 13.1247,22.7327 23.71957,41.41226 23.54417,41.51018 z"
       style="fill:#d9e26b;fill-opacity:1;stroke:#000000;stroke-width:0.34090185;stroke-miterlimit:4;stroke-opacity:1;stroke-dasharray:none" />
    <path
       style="fill:#d9e26b;fill-opacity:1;stroke:#000000;stroke-width:0.34090185;stroke-miterlimit:4;stroke-opacity:1;stroke-dasharray:none"
       d="m 453.66159,585.05964 c -0.18873,0.0688 -1.48527,0.20783 -2.88166,0.30694 -9.1421,0.65191 -21.28871,5.20473 -28.47207,10.6718 -0.76246,0.5803 -1.5091,1.00031 -1.65923,0.93349 -0.1502,-0.0668 -10.67629,-18.1467 -23.39135,-40.17758 -12.71504,-22.03076 -23.47046,-40.63764 -23.90088,-41.34865 l -0.78264,-1.29261 5.00304,-0.22816 c 14.18801,-0.64702 29.79075,-6.90327 39.63539,-15.89266 1.26664,-1.15657 2.36641,-2.12721 2.44405,-2.15698 0.0776,-0.0299 7.8377,19.99612 17.24467,44.5021 9.40699,24.50597 16.94924,44.61299 16.76066,44.68227 z"
       id="path3912"
       inkscape:connector-curvature="0" />
    <use
       height="744.09448"
       width="1052.3622"
       transform="matrix(0.10452847,-0.9945219,0.9945219,0.10452847,259.20707,1072.7047)"
       id="use3854"
       xlink:href="#rect3846"
       y="0"
       x="0" />
    <rect
       y="412.38745"
       x="654.01764"
       height="98.061676"
       width="113.47137"
       id="rect3945"
       style="fill:#ea0b6b;fill-opacity:0.38053098;stroke:#000000;stroke-width:1.9028635;stroke-miterlimit:4;stroke-opacity:1;stroke-dasharray:none"
       transform="matrix(0.99452189,0.10452847,-0.10452847,0.99452189,0,0)" />
    <rect
       style="fill:#ea0b6b;fill-opacity:0.38053098;stroke:#000000;stroke-width:1.9028635;stroke-miterlimit:4;stroke-opacity:1;stroke-dasharray:none"
       id="rect3771"
       width="113.47137"
       height="98.061676"
       x="-216.68854"
       y="624.14142"
       transform="matrix(0.77714595,-0.6293204,0.6293204,0.77714595,0,0)" />
    <rect
       style="fill:#db4040;fill-opacity:1;stroke:#000000;stroke-width:0.6548419;stroke-miterlimit:4;stroke-opacity:1;stroke-dasharray:none"
       id="rect3809"
       width="126.93701"
       height="11.345158"
       x="-6.9023576"
       y="232.13608" />
    <use
       x="0"
       y="0"
       xlink:href="#rect3809"
       id="use3811"
       transform="matrix(-0.90630776,-0.42261828,0.42261828,-0.90630776,312.84663,893.99295)"
       width="1052.3622"
       height="744.09448"
       style="fill:#ffffff;fill-opacity:0.44444448;stroke:#e72727;stroke-opacity:1" />
    <use
       x="0"
       y="0"
       xlink:href="#use3811"
       id="use3819"
       transform="matrix(0.37460662,-0.92718386,-0.92718386,-0.37460662,1133.1013,1182.1531)"
       width="1052.3622"
       height="744.09448" />
    <rect
       style="fill:#6be279;fill-opacity:1;stroke:#000000;stroke-width:1;stroke-miterlimit:4;stroke-opacity:1;stroke-dasharray:none"
       id="rect3846"
       width="97.913528"
       height="9.7400532"
       x="529.17126"
       y="274.68399" />
    <use
       height="744.09448"
       width="1052.3622"
       transform="matrix(-0.50000001,-0.86602542,0.86602542,-0.50000001,439.02651,1198.3793)"
       id="use3850"
       xlink:href="#rect3846"
       y="0"
       x="0" />
    <use
       x="0"
       y="0"
       xlink:href="#rect3846"
       id="use3852"
       transform="matrix(-0.2079117,-0.97814762,0.97814762,-0.2079117,339.10212,1149.7733)"
       width="1052.3622"
       height="744.09448" />
    <use
       style="fill:#ffffff;fill-opacity:0.44444448;stroke:#e72727;stroke-opacity:1"
       height="744.09448"
       width="1052.3622"
       transform="matrix(-0.25881904,-0.96592581,0.96592581,-0.25881904,228.72217,871.77344)"
       id="use3860"
       xlink:href="#rect3809"
       y="0"
       x="0" />
    <use
       x="0"
       y="0"
       xlink:href="#rect3809"
       id="use3862"
       transform="matrix(0.27563736,-0.96126168,0.96126168,0.27563736,404.8716,720.98422)"
       width="1052.3622"
       height="744.09448"
       style="fill:#ffffff;fill-opacity:0.44444448;stroke:#e72727;stroke-opacity:1" />
    <path
       sodipodi:type="arc"
       style="fill:#666666;fill-opacity:1;stroke:#000000;stroke-width:0.65368839000000001;stroke-miterlimit:4;stroke-opacity:1;stroke-dasharray:none"
       id="path3864"
       sodipodi:cx="252.75436"
       sodipodi:cy="51.089729"
       sodipodi:rx="16.071087"
       sodipodi:ry="16.071087"
       d="m 268.82545,51.089729 c 0,8.875817 -7.19527,16.071087 -16.07109,16.071087 -8.87581,0 -16.07108,-7.19527 -16.07108,-16.071087 0,-8.875816 7.19527,-16.071087 16.07108,-16.071087 8.87582,0 16.07109,7.195271 16.07109,16.071087 z"
       transform="matrix(0.76489044,0,0,0.76489044,25.334784,181.48364)" />
    <use
       x="0"
       y="0"
       xlink:href="#rect3846"
       id="use3870"
       transform="matrix(-0.05233596,-0.99862954,0.99862954,-0.05233596,296.45965,1114.9574)"
       width="1052.3622"
       height="744.09448" />
    <path
       style="fill:none;stroke:#000000;stroke-width:1px;stroke-linecap:butt;stroke-linejoin:miter;stroke-opacity:1"
       d="m 298.53262,246.37282 412.00423,0"
       id="path3872"
       inkscape:connector-curvature="0" />
    <path
       inkscape:connector-curvature="0"
       id="path3874"
       d="M 298.53262,246.37282 705.46437,181.92116"
       style="fill:none;stroke:#000000;stroke-width:1px;stroke-linecap:butt;stroke-linejoin:miter;stroke-opacity:1" />
    <path
       sodipodi:type="arc"
       style="fill:none;fill-opacity:1;stroke:#000000;stroke-width:1.06691359999999991;stroke-miterlimit:4;stroke-opacity:1;stroke-dasharray:none"
       id="path3878"
       sodipodi:cx="442.85065"
       sodipodi:cy="-76.177864"
       sodipodi:rx="86.090714"
       sodipodi:ry="86.090714"
       d="m 528.94136,-76.177864 c 0,47.546588 -38.54412,86.0907134 -86.09071,86.0907134 -47.54659,0 -86.09072,-38.5441254 -86.09072,-86.0907134 0,-47.546586 38.54413,-86.090716 86.09072,-86.090716 47.54659,0 86.09071,38.54413 86.09071,86.090716 z"
       transform="matrix(0.6560981,0,0,0.6560981,186.29718,277.06442)" />
    <path
       sodipodi:type="arc"
       style="fill:none;fill-opacity:1;stroke:#000000;stroke-width:2;stroke-miterlimit:4;stroke-opacity:1;stroke-dasharray:none"
       id="path3880"
       sodipodi:cx="772.06152"
       sodipodi:cy="-131.27592"
       sodipodi:rx="175.62506"
       sodipodi:ry="175.62506"
       d="m 947.68658,-131.27592 c 0,96.995038 -78.63001,175.625056 -175.62506,175.625056 -96.99504,0 -175.62506,-78.630018 -175.62506,-175.625056 0,-96.99505 78.63002,-175.62507 175.62506,-175.62507 96.99505,0 175.62506,78.63002 175.62506,175.62507 z"
       transform="matrix(0.36307108,0,0,0.36307108,405.31869,267.98416)" />
    <path
       style="fill:#d9e26b;fill-opacity:1;stroke:#000000;stroke-width:0.34090185;stroke-miterlimit:4;stroke-opacity:1;stroke-dasharray:none"
       d="m 530.96784,-62.792024 c 0.003,-0.200889 0.33863,-1.461008 0.74607,-2.800266 2.66759,-8.768524 2.77019,-21.739889 0.2405,-30.405409 -0.2685,-0.91974 -0.39308,-1.76735 -0.27685,-1.883578 0.11622,-0.116228 20.76748,-3.463933 45.89167,-7.439343 25.12419,-3.97541 46.34961,-7.34833 47.1676,-7.49538 l 1.48726,-0.26735 -1.57991,4.75243 c -4.4805,13.477563 -4.23131,30.286011 0.63302,42.698283 0.62584,1.596949 1.13789,2.971568 1.13789,3.054704 0,0.08314 -21.47682,0.151161 -47.72626,0.151161 -26.24944,0 -47.72388,-0.164364 -47.72099,-0.365252 z"
       id="path3906"
       inkscape:connector-curvature="0"
       transform="translate(0,308.2677)" />
    <path
       inkscape:connector-curvature="0"
       id="path3910"
       d="m 530.96784,-62.792024 c 0.003,-0.200889 0.33863,-1.461008 0.74607,-2.800266 2.66759,-8.768524 2.77019,-21.739889 0.2405,-30.405409 -0.2685,-0.91974 -0.39308,-1.76735 -0.27685,-1.883578 0.11622,-0.116228 20.76748,-3.463933 45.89167,-7.439343 25.12419,-3.97541 46.34961,-7.34833 47.1676,-7.49538 l 1.48726,-0.26735 -1.57991,4.75243 c -4.4805,13.477563 -4.23131,30.286011 0.63302,42.698283 0.62584,1.596949 1.13789,2.971568 1.13789,3.054704 0,0.08314 -21.47682,0.151161 -47.72626,0.151161 -26.24944,0 -47.72388,-0.164364 -47.72099,-0.365252 z"
       style="fill:#d9e26b;fill-opacity:1;stroke:#000000;stroke-width:0.34090185;stroke-miterlimit:4;stroke-opacity:1;stroke-dasharray:none"
       transform="translate(0,308.2677)" />
    <use
       height="744.09448"
       width="1052.3622"
       transform="matrix(-0.35836795,-0.93358046,0.93358046,-0.35836795,387.19805,1177.8129)"
       id="use3914"
       xlink:href="#rect3846"
       y="0"
       x="0" />
    <path
       sodipodi:type="arc"
       style="fill:#e2a56b;fill-opacity:1;stroke:#000000;stroke-width:2;stroke-miterlimit:4;stroke-opacity:1;stroke-dasharray:none"
       id="path3767"
       sodipodi:cx="376.37167"
       sodipodi:cy="164.70073"
       sodipodi:rx="32.795872"
       sodipodi:ry="32.795872"
       d="m 409.16755,164.70073 c 0,18.11266 -14.68322,32.79587 -32.79588,32.79587 -18.11266,0 -32.79587,-14.68321 -32.79587,-32.79587 0,-18.11266 14.68321,-32.79587 32.79587,-32.79587 18.11266,0 32.79588,14.68321 32.79588,32.79587 z"
       transform="matrix(0.40899502,-0.33119765,0.33119765,0.40899502,88.903072,681.77376)" />
    <path
       transform="matrix(0.61880935,-0.44959132,0.44959132,0.61880935,245.50057,768.67203)"
       d="m 268.82545,51.089729 c 0,8.875817 -7.19527,16.071087 -16.07109,16.071087 -8.87581,0 -16.07108,-7.19527 -16.07108,-16.071087 0,-8.875816 7.19527,-16.071087 16.07108,-16.071087 8.87582,0 16.07109,7.195271 16.07109,16.071087 z"
       sodipodi:ry="16.071087"
       sodipodi:rx="16.071087"
       sodipodi:cy="51.089729"
       sodipodi:cx="252.75436"
       id="path3951"
       style="fill:#a49ca3;fill-opacity:1;stroke:#000000;stroke-width:0.65368837;stroke-miterlimit:4;stroke-opacity:1;stroke-dasharray:none"
       sodipodi:type="arc" />
    <path
       sodipodi:type="arc"
       style="fill:#a49ca3;fill-opacity:1;stroke:#000000;stroke-width:0.65368837;stroke-miterlimit:4;stroke-opacity:1;stroke-dasharray:none"
       id="path3953"
       sodipodi:cx="252.75436"
       sodipodi:cy="51.089729"
       sodipodi:rx="16.071087"
       sodipodi:ry="16.071087"
       d="m 268.82545,51.089729 c 0,8.875817 -7.19527,16.071087 -16.07109,16.071087 -8.87581,0 -16.07108,-7.19527 -16.07108,-16.071087 0,-8.875816 7.19527,-16.071087 16.07108,-16.071087 8.87582,0 16.07109,7.195271 16.07109,16.071087 z"
       transform="matrix(0.75327004,-0.13282182,0.13282182,0.75327004,468.04214,664.4966)" />
    <path
       transform="matrix(0.40899502,-0.33119765,0.33119765,0.40899502,448.42671,591.56016)"
       d="m 409.16755,164.70073 c 0,18.11266 -14.68322,32.79587 -32.79588,32.79587 -18.11266,0 -32.79587,-14.68321 -32.79587,-32.79587 0,-18.11266 14.68321,-32.79587 32.79587,-32.79587 18.11266,0 32.79588,14.68321 32.79588,32.79587 z"
       sodipodi:ry="32.795872"
       sodipodi:rx="32.795872"
       sodipodi:cy="164.70073"
       sodipodi:cx="376.37167"
       id="path3957"
       style="fill:#e2a56b;fill-opacity:1;stroke:#000000;stroke-width:2;stroke-miterlimit:4;stroke-opacity:1;stroke-dasharray:none"
       sodipodi:type="arc" />
    <text
       xml:space="preserve"
       style="font-size:24px;font-style:normal;font-weight:normal;line-height:125%;letter-spacing:0px;word-spacing:0px;fill:#31a0b2;fill-opacity:0.9372549;stroke:#39bcd1;stroke-width:0.78317189;stroke-opacity:0.78318583;font-family:Sans"
       x="577.6626"
       y="921.70782"
       id="text3971"
       sodipodi:linespacing="125%"><tspan
         sodipodi:role="line"
         id="tspan3973"
         x="577.6626"
         y="921.70782"
         style="font-size:24px;stroke-width:0.78317189">ψ</tspan></text>
    <path
       style="fill:none;stroke:#39bcd1;stroke-width:3;stroke-linecap:butt;stroke-linejoin:miter;stroke-miterlimit:4;stroke-opacity:0.78318583;stroke-dasharray:9, 3;stroke-dashoffset:0"
       d="M 188.36725,495.95777 678.18759,1072.128"
       id="path3955"
       inkscape:connector-curvature="0" />
    <path
       inkscape:connector-curvature="0"
       id="path3959"
       d="M 671.3173,390.70867 602.70772,1086.5545"
       style="fill:none;stroke:#39bcd1;stroke-width:3;stroke-linecap:butt;stroke-linejoin:miter;stroke-miterlimit:4;stroke-opacity:0.78318583;stroke-dasharray:9, 3;stroke-dashoffset:0" />
    <path
       sodipodi:type="arc"
       style="fill:#000000;fill-opacity:0;stroke:#39bcd1;stroke-width:3;stroke-miterlimit:4;stroke-opacity:0.78318583;stroke-dasharray:none;stroke-dashoffset:0"
       id="path3995"
       sodipodi:cx="772.86774"
       sodipodi:cy="131.74001"
       sodipodi:rx="44.547726"
       sodipodi:ry="43.840622"
       d="m 742.69737,99.484517 c 9.18448,-8.320203 21.49488,-12.466209 33.93351,-11.428432"
       transform="translate(-166.44069,845.66885)"
       sodipodi:start="3.9683577"
       sodipodi:end="4.7969642"
       sodipodi:open="true" />
    <text
       xml:space="preserve"
       style="font-size:24px;font-style:normal;font-weight:normal;line-height:125%;letter-spacing:0px;word-spacing:0px;fill:#35afc2;fill-opacity:0.8;stroke:none;font-family:Sans"
       x="350.95404"
       y="683.94446"
       id="text4011"
       sodipodi:linespacing="125%"><tspan
         sodipodi:role="line"
         id="tspan4013"
         x="350.95404"
         y="683.94446">a<tspan
   style="font-size:65.00091553%;baseline-shift:sub"
   id="tspan4029">1</tspan></tspan></text>
    <path
       sodipodi:type="arc"
       style="fill:#000000;fill-opacity:0;stroke:#39bcd1;stroke-width:3;stroke-miterlimit:4;stroke-opacity:0.78318583;stroke-dasharray:none;stroke-dashoffset:0"
       id="path4019"
       sodipodi:cx="86.5"
       sodipodi:cy="443.59448"
       sodipodi:rx="54.5"
       sodipodi:ry="54.5"
       d="m 136.0052,466.38671 c -2.80226,6.08655 -6.70289,11.60416 -11.50625,16.27604"
       transform="translate(216.89771,186.27811)"
       sodipodi:start="0.43146938"
       sodipodi:end="0.79927244"
       sodipodi:open="true" />
    <text
       sodipodi:linespacing="125%"
       id="text4021"
       y="636.04846"
       x="616.9541"
       style="font-size:24px;font-style:normal;font-weight:normal;line-height:125%;letter-spacing:0px;word-spacing:0px;fill:#35afc2;fill-opacity:0.8;stroke:none;font-family:Sans"
       xml:space="preserve"><tspan
         y="636.04846"
         x="616.9541"
         id="tspan4023"
         sodipodi:role="line">a<tspan
   style="font-size:65.00091553%;baseline-shift:sub"
   id="tspan4027">2</tspan></tspan></text>
    <path
       sodipodi:end="1.6863573"
       sodipodi:start="1.4495238"
       transform="translate(571.39771,140.27811)"
       d="m 93.093164,497.69421 c -4.275873,0.5211 -8.598449,0.53344 -12.877229,0.0368"
       sodipodi:ry="54.5"
       sodipodi:rx="54.5"
       sodipodi:cy="443.59448"
       sodipodi:cx="86.5"
       id="path4031"
       style="fill:#000000;fill-opacity:0;stroke:#39bcd1;stroke-width:3;stroke-miterlimit:4;stroke-opacity:0.78318583;stroke-dasharray:none;stroke-dashoffset:0"
       sodipodi:type="arc"
       sodipodi:open="true" />
    <path
       transform="matrix(0.45737477,0,0,0.45737477,60.613976,794.44949)"
       d="m 268.82545,51.089729 c 0,8.875817 -7.19527,16.071087 -16.07109,16.071087 -8.87581,0 -16.07108,-7.19527 -16.07108,-16.071087 0,-8.875816 7.19527,-16.071087 16.07108,-16.071087 8.87582,0 16.07109,7.195271 16.07109,16.071087 z"
       sodipodi:ry="16.071087"
       sodipodi:rx="16.071087"
       sodipodi:cy="51.089729"
       sodipodi:cx="252.75436"
       id="path4037"
       style="fill:#666666;fill-opacity:1;stroke:#000000;stroke-width:0.65368837;stroke-miterlimit:4;stroke-opacity:1;stroke-dasharray:none"
       sodipodi:type="arc" />
    <path
       inkscape:connector-curvature="0"
       id="path4049"
       d="M -2.8406379,817.17773 1059.0782,818.90801"
       style="fill:#39bcd1;stroke:#39bcd1;stroke-width:3;stroke-linecap:butt;stroke-linejoin:miter;stroke-miterlimit:4;stroke-opacity:0.78318582999999986;stroke-dasharray:9,3;stroke-dashoffset:0;fill-opacity:0.76581115000000000" />
    <path
       style="fill:#39bcd1;fill-opacity:0.76581116;stroke:#39bcd1;stroke-width:3;stroke-linecap:butt;stroke-linejoin:miter;stroke-miterlimit:4;stroke-opacity:0.78318583;stroke-dasharray:9, 3;stroke-dashoffset:0"
       d="M -180.05863,1010.5141 646.29607,343.57164"
       id="path4051"
       inkscape:connector-curvature="0" />
    <path
       sodipodi:type="arc"
       style="fill:none;stroke:#39bbd1;stroke-width:3;stroke-miterlimit:4;stroke-opacity:1;stroke-dasharray:none;stroke-dashoffset:0"
       id="path4053"
       sodipodi:cx="156.97771"
       sodipodi:cy="213.7644"
       sodipodi:rx="57.982758"
       sodipodi:ry="57.982758"
       d="m 204.68436,180.80874 c 5.85031,8.46892 9.34074,18.34254 10.11278,28.60668"
       transform="matrix(0.63872724,0,0,0.63872724,-39.73302,679.81657)"
       sodipodi:start="5.6786619"
       sodipodi:end="6.2081101"
       sodipodi:open="true" />
    <text
       sodipodi:linespacing="125%"
       id="text4055"
       y="808.70782"
       x="101.6626"
       style="font-size:24px;font-style:normal;font-weight:normal;line-height:125%;letter-spacing:0px;word-spacing:0px;fill:#31a0b2;fill-opacity:0.9372549;stroke:#39bcd1;stroke-width:0.78317189;stroke-opacity:0.78318583;font-family:Sans"
       xml:space="preserve"><tspan
         style="font-size:24px;stroke-width:0.78317189"
         y="808.70782"
         x="101.6626"
         id="tspan4057"
         sodipodi:role="line">θ</tspan></text>
    <text
       xml:space="preserve"
       style="font-size:40px;font-style:normal;font-weight:normal;line-height:125%;letter-spacing:0px;word-spacing:0px;fill:#000000;fill-opacity:1;stroke:none;font-family:Sans"
       x="320"
       y="543.09448"
       id="text4067"
       sodipodi:linespacing="125%"
       transform="translate(0,308.2677)"><tspan
         sodipodi:role="line"
         id="tspan4069" /></text>
    <text
       sodipodi:linespacing="125%"
       id="text4071"
       y="803.70782"
       x="346.53262"
       style="font-size:24px;font-style:normal;font-weight:normal;line-height:125%;letter-spacing:0px;word-spacing:0px;fill:#31a0b2;fill-opacity:0.9372549;stroke:#39bcd1;stroke-width:0.78317189;stroke-opacity:0.78318583;font-family:Sans"
       xml:space="preserve"><tspan
         style="font-size:24px;stroke-width:0.78317189"
         y="803.70782"
         x="346.53262"
         id="tspan4073"
         sodipodi:role="line">(x,y)</tspan></text>
    <path
       style="stroke:#37b5ca;stroke-width:3;stroke-linecap:butt;stroke-linejoin:miter;stroke-opacity:1;marker-end:none;fill-opacity:1;stroke-miterlimit:4;stroke-dasharray:none;fill:#37b5ca"
       d="m 174,509.59448 283.5,-6.5 -23.5,11 7,-10.5 -7,-9.5 23.5,9"
       id="path4075"
       inkscape:connector-curvature="0"
       transform="translate(0,308.2677)" />
    <text
       xml:space="preserve"
       style="font-size:24px;font-style:normal;font-weight:normal;line-height:125%;letter-spacing:0px;word-spacing:0px;fill:#31a0b2;fill-opacity:0.9372549;stroke:#39bcd1;stroke-width:0.78317189;stroke-opacity:0.78318583;font-family:Sans"
       x="455.55862"
       y="760.09772"
       id="text5827"
       sodipodi:linespacing="125%"><tspan
         sodipodi:role="line"
         id="tspan5829"
         x="455.55862"
         y="760.09772"
         style="font-size:24px;stroke-width:0.78317189">m<tspan
   style="font-size:65.00091553%;baseline-shift:sub"
   id="tspan3214">12</tspan>,I<tspan
   style="font-size:65.00091553%;baseline-shift:sub"
   id="tspan3216">12</tspan></tspan></text>
    <text
       sodipodi:linespacing="125%"
       id="text3218"
       y="647.11316"
       x="380.56021"
       style="font-size:24px;font-style:normal;font-weight:normal;line-height:125%;letter-spacing:0px;word-spacing:0px;fill:#31a0b2;fill-opacity:0.9372549;stroke:#39bcd1;stroke-width:0.78317189;stroke-opacity:0.78318583;font-family:Sans"
       xml:space="preserve"><tspan
         style="font-size:24px;stroke-width:0.78317189"
         y="647.11316"
         x="380.56021"
         id="tspan3220"
         sodipodi:role="line">m<tspan
   id="tspan3222"
   style="font-size:65.00091553%;baseline-shift:sub">11</tspan>,I<tspan
   id="tspan3224"
   style="font-size:65.00091553%;baseline-shift:sub">11</tspan></tspan></text>
    <text
       xml:space="preserve"
       style="font-size:24px;font-style:normal;font-weight:normal;line-height:125%;letter-spacing:0px;word-spacing:0px;fill:#31a0b2;fill-opacity:0.9372549;stroke:#39bcd1;stroke-width:0.78317189;stroke-opacity:0.78318583;font-family:Sans"
       x="685.42389"
       y="622.763"
       id="text3226"
       sodipodi:linespacing="125%"><tspan
         sodipodi:role="line"
         id="tspan3228"
         x="685.42389"
         y="622.763"
         style="font-size:24px;stroke-width:0.78317189">m<tspan
   style="font-size:65.00091553%;baseline-shift:sub"
   id="tspan3230">21</tspan>,I<tspan
   style="font-size:65.00091553%;baseline-shift:sub"
   id="tspan3232">21</tspan></tspan></text>
    <text
       sodipodi:linespacing="125%"
       id="text3234"
       y="749.38367"
       x="663.02179"
       style="font-size:24px;font-style:normal;font-weight:normal;line-height:125%;letter-spacing:0px;word-spacing:0px;fill:#31a0b2;fill-opacity:0.9372549;stroke:#39bcd1;stroke-width:0.78317189;stroke-opacity:0.78318583;font-family:Sans"
       xml:space="preserve"><tspan
         style="font-size:24px;stroke-width:0.78317189"
         y="749.38367"
         x="663.02179"
         id="tspan3236"
         sodipodi:role="line">m<tspan
   id="tspan3238"
   style="font-size:65.00091553%;baseline-shift:sub">22</tspan>,I<tspan
   id="tspan3240"
   style="font-size:65.00091553%;baseline-shift:sub">22</tspan></tspan></text>
    <g
       id="g3248"
       transform="matrix(0.39380584,0,0,0.39380584,97.549422,143.39611)">
      <path
         transform="translate(0,308.2677)"
         d="m 152.89711,-131.96465 c 0,15.97566 -12.95083,28.92649 -28.92648,28.92649 -15.97566,0 -28.926484,-12.95083 -28.926484,-28.92649 0,-15.97565 12.950824,-28.92648 28.926484,-28.92648 15.97565,0 28.92648,12.95083 28.92648,28.92648 z"
         sodipodi:ry="28.926481"
         sodipodi:rx="28.926481"
         sodipodi:cy="-131.96465"
         sodipodi:cx="123.97063"
         id="path3242"
         style="fill:#000000;fill-opacity:1"
         sodipodi:type="arc" />
      <path
         sodipodi:end="1.5707963"
         sodipodi:start="0"
         transform="translate(79.547823,315.84369)"
         d="m 68.183846,-138.50755 c 0,12.74248 -10.329826,23.07231 -23.072311,23.07231 l -1e-6,-23.07231 z"
         sodipodi:ry="23.072311"
         sodipodi:rx="23.072311"
         sodipodi:cy="-138.50755"
         sodipodi:cx="45.111534"
         id="path3244"
         style="fill:#ffff00;fill-opacity:1"
         sodipodi:type="arc" />
      <path
         sodipodi:type="arc"
         style="fill:#ffff00;fill-opacity:1"
         id="path3246"
         sodipodi:cx="45.111534"
         sodipodi:cy="-138.50755"
         sodipodi:rx="23.072311"
         sodipodi:ry="23.072311"
         d="m 68.183846,-138.50755 c 0,12.74248 -10.329826,23.07231 -23.072311,23.07231 l -1e-6,-23.07231 z"
         transform="matrix(-1,0,0,-1,168.39344,37.106764)"
         sodipodi:start="0"
         sodipodi:end="1.5707963" />
    </g>
    <use
       x="0"
       y="0"
       xlink:href="#g3248"
       id="use3261"
       transform="translate(219.04388,443.87723)"
       width="1052.3622"
       height="744.09448" />
    <g
       transform="matrix(0.39380584,0,0,0.39380584,393.16001,682.02102)"
       id="g3263">
      <path
         sodipodi:type="arc"
         style="fill:#000000;fill-opacity:1"
         id="path3265"
         sodipodi:cx="123.97063"
         sodipodi:cy="-131.96465"
         sodipodi:rx="28.926481"
         sodipodi:ry="28.926481"
         d="m 152.89711,-131.96465 c 0,15.97566 -12.95083,28.92649 -28.92648,28.92649 -15.97566,0 -28.926484,-12.95083 -28.926484,-28.92649 0,-15.97565 12.950824,-28.92648 28.926484,-28.92648 15.97565,0 28.92648,12.95083 28.92648,28.92648 z"
         transform="translate(0,308.2677)" />
      <path
         sodipodi:type="arc"
         style="fill:#ffff00;fill-opacity:1"
         id="path3267"
         sodipodi:cx="45.111534"
         sodipodi:cy="-138.50755"
         sodipodi:rx="23.072311"
         sodipodi:ry="23.072311"
         d="m 68.183846,-138.50755 c 0,12.74248 -10.329826,23.07231 -23.072311,23.07231 l -1e-6,-23.07231 z"
         transform="translate(79.547823,315.84369)"
         sodipodi:start="0"
         sodipodi:end="1.5707963" />
      <path
         sodipodi:end="1.5707963"
         sodipodi:start="0"
         transform="matrix(-1,0,0,-1,168.39344,37.106764)"
         d="m 68.183846,-138.50755 c 0,12.74248 -10.329826,23.07231 -23.072311,23.07231 l -1e-6,-23.07231 z"
         sodipodi:ry="23.072311"
         sodipodi:rx="23.072311"
         sodipodi:cy="-138.50755"
         sodipodi:cx="45.111534"
         id="path3269"
         style="fill:#ffff00;fill-opacity:1"
         sodipodi:type="arc" />
    </g>
    <g
       id="g3271"
       transform="matrix(0.39380584,0,0,0.39380584,613.2852,543.71227)">
      <path
         transform="translate(0,308.2677)"
         d="m 152.89711,-131.96465 c 0,15.97566 -12.95083,28.92649 -28.92648,28.92649 -15.97566,0 -28.926484,-12.95083 -28.926484,-28.92649 0,-15.97565 12.950824,-28.92648 28.926484,-28.92648 15.97565,0 28.92648,12.95083 28.92648,28.92648 z"
         sodipodi:ry="28.926481"
         sodipodi:rx="28.926481"
         sodipodi:cy="-131.96465"
         sodipodi:cx="123.97063"
         id="path3273"
         style="fill:#000000;fill-opacity:1"
         sodipodi:type="arc" />
      <path
         sodipodi:end="1.5707963"
         sodipodi:start="0"
         transform="translate(79.547823,315.84369)"
         d="m 68.183846,-138.50755 c 0,12.74248 -10.329826,23.07231 -23.072311,23.07231 l -1e-6,-23.07231 z"
         sodipodi:ry="23.072311"
         sodipodi:rx="23.072311"
         sodipodi:cy="-138.50755"
         sodipodi:cx="45.111534"
         id="path3275"
         style="fill:#ffff00;fill-opacity:1"
         sodipodi:type="arc" />
      <path
         sodipodi:type="arc"
         style="fill:#ffff00;fill-opacity:1"
         id="path3277"
         sodipodi:cx="45.111534"
         sodipodi:cy="-138.50755"
         sodipodi:rx="23.072311"
         sodipodi:ry="23.072311"
         d="m 68.183846,-138.50755 c 0,12.74248 -10.329826,23.07231 -23.072311,23.07231 l -1e-6,-23.07231 z"
         transform="matrix(-1,0,0,-1,168.39344,37.106764)"
         sodipodi:start="0"
         sodipodi:end="1.5707963" />
    </g>
    <g
       transform="matrix(0.39380584,0,0,0.39380584,600.53688,661.6189)"
       id="g3279">
      <path
         sodipodi:type="arc"
         style="fill:#000000;fill-opacity:1"
         id="path3281"
         sodipodi:cx="123.97063"
         sodipodi:cy="-131.96465"
         sodipodi:rx="28.926481"
         sodipodi:ry="28.926481"
         d="m 152.89711,-131.96465 c 0,15.97566 -12.95083,28.92649 -28.92648,28.92649 -15.97566,0 -28.926484,-12.95083 -28.926484,-28.92649 0,-15.97565 12.950824,-28.92648 28.926484,-28.92648 15.97565,0 28.92648,12.95083 28.92648,28.92648 z"
         transform="translate(0,308.2677)" />
      <path
         sodipodi:type="arc"
         style="fill:#ffff00;fill-opacity:1"
         id="path3283"
         sodipodi:cx="45.111534"
         sodipodi:cy="-138.50755"
         sodipodi:rx="23.072311"
         sodipodi:ry="23.072311"
         d="m 68.183846,-138.50755 c 0,12.74248 -10.329826,23.07231 -23.072311,23.07231 l -1e-6,-23.07231 z"
         transform="translate(79.547823,315.84369)"
         sodipodi:start="0"
         sodipodi:end="1.5707963" />
      <path
         sodipodi:end="1.5707963"
         sodipodi:start="0"
         transform="matrix(-1,0,0,-1,168.39344,37.106764)"
         d="m 68.183846,-138.50755 c 0,12.74248 -10.329826,23.07231 -23.072311,23.07231 l -1e-6,-23.07231 z"
         sodipodi:ry="23.072311"
         sodipodi:rx="23.072311"
         sodipodi:cy="-138.50755"
         sodipodi:cx="45.111534"
         id="path3285"
         style="fill:#ffff00;fill-opacity:1"
         sodipodi:type="arc" />
    </g>
    <text
       xml:space="preserve"
       style="font-size:24px;font-style:normal;font-weight:normal;line-height:125%;letter-spacing:0px;word-spacing:0px;fill:#31a0b2;fill-opacity:0.9372549;stroke:#39bcd1;stroke-width:0.78317189;stroke-opacity:0.78318583;font-family:Sans"
       x="167.05524"
       y="589.26025"
       id="text3295"
       sodipodi:linespacing="125%"><tspan
         sodipodi:role="line"
         id="tspan3297"
         x="167.05524"
         y="589.26025"
         style="font-size:24px;stroke-width:0.78317189">motor<tspan
   style="font-size:65.00091553%;baseline-shift:sub"
   id="tspan3299">1</tspan></tspan></text>
    <text
       sodipodi:linespacing="125%"
       id="text3303"
       y="474.93179"
       x="672.57996"
       style="font-size:24px;font-style:normal;font-weight:normal;line-height:125%;letter-spacing:0px;word-spacing:0px;fill:#31a0b2;fill-opacity:0.9372549;stroke:#39bcd1;stroke-width:0.78317189;stroke-opacity:0.78318583;font-family:Sans"
       xml:space="preserve"><tspan
         style="font-size:24px;stroke-width:0.78317189"
         y="474.93179"
         x="672.57996"
         id="tspan3305"
         sodipodi:role="line">motor<tspan
   id="tspan3307"
   style="font-size:65.00091553%;baseline-shift:sub">2</tspan></tspan></text>
    <text
       sodipodi:linespacing="125%"
       id="text3309"
       y="589.26025"
       x="167.05524"
       style="font-size:24px;font-style:normal;font-weight:normal;line-height:125%;letter-spacing:0px;word-spacing:0px;fill:#31a0b2;fill-opacity:0.9372549;stroke:#39bcd1;stroke-width:0.78317189;stroke-opacity:0.78318583;font-family:Sans"
       xml:space="preserve"><tspan
         style="font-size:24px;stroke-width:0.78317189"
         y="589.26025"
         x="167.05524"
         id="tspan3311"
         sodipodi:role="line">motor<tspan
   id="tspan3313"
   style="font-size:65.00091553%;baseline-shift:sub">1</tspan></tspan></text>
    <text
       xml:space="preserve"
       style="font-size:24px;font-style:normal;font-weight:normal;line-height:125%;letter-spacing:0px;word-spacing:0px;fill:#31a0b2;fill-opacity:0.9372549;stroke:#39bcd1;stroke-width:0.78317189;stroke-opacity:0.78318583;font-family:Sans"
       x="382.91806"
       y="495.55432"
       id="text3315"
       sodipodi:linespacing="125%"><tspan
         sodipodi:role="line"
         id="tspan3317"
         x="382.91806"
         y="495.55432"
         style="font-size:24px;stroke-width:0.78317189">κ</tspan></text>
    <path
       style="fill:none;stroke:#39bdd2;stroke-width:3;stroke-linecap:butt;stroke-linejoin:miter;stroke-opacity:1;fill-opacity:0.33333333999999998;stroke-miterlimit:4;stroke-dasharray:9,3;stroke-dashoffset:0"
       d="M 298.53262,317.08453 C 377.4217,248.21195 500.98502,186.22664 654,224.79528"
       id="path3321"
       inkscape:connector-curvature="0"
       transform="translate(0,308.2677)"
       sodipodi:nodetypes="cc" />
    <text
       sodipodi:linespacing="125%"
       id="text4109"
       y="546.6524"
       x="557.85437"
       style="font-size:24px;font-style:normal;font-weight:normal;line-height:125%;letter-spacing:0px;word-spacing:0px;fill:#31a0b2;fill-opacity:0.9372549;stroke:#39bcd1;stroke-width:0.78317189;stroke-opacity:0.78318583;font-family:Sans"
       xml:space="preserve"><tspan
         style="font-size:24px;stroke-width:0.78317189"
         y="546.6524"
         x="557.85437"
         id="tspan4111"
         sodipodi:role="line">L</tspan></text>
  </g>
</svg>
